# xmcd
#
# Track frame offsets: 
#        150
#        11838
#        23246
#        44479
#        67331
#        82889
#        94105
#        107481
#        123538
#        143158
#        161640
#
# Disc length: 2384 seconds
#
# Revision: 1
# Processed by: cddbd v1.5.1PL0 Copyright (c) Steve Scherf et al.
# Submitted via: ExactAudioCopy v0.95a5
#
DISCID=93094e0b
DTITLE=Terry Scott Taylor - Avocado Faultline
DYEAR=2000
DGENRE=Rock
TTITLE0=Cowboys With Engines
TTITLE1=Startin' Monday
TTITLE2=Capistrano Beach
TTITLE3=Pie Hole
TTITLE4=The Afternoon
TTITLE5=Built Her a Cloud
TTITLE6=Angels Must Smile Like That
TTITLE7=With What I Should Have Said
TTITLE8=Pretend I'm Elvis (For Just One Night)
TTITLE9=Papa Danced on Olvera Street
TTITLE10=Kind Word
EXTD=
EXTT0=
EXTT1=
EXTT2=
EXTT3=
EXTT4=
EXTT5=
EXTT6=
EXTT7=
EXTT8=
EXTT9=
EXTT10=
PLAYORDER=
